<svg xmlns="http://www.w3.org/2000/svg" xmlns:xlink="http://www.w3.org/1999/xlink" width="14" height="14" viewBox="0 0 14 14"><defs><path id="rprwa" d="M516.25 925.12c-.3 0-.6-.03-.9-.09L511 926l.83-3.31a5.21 5.21 0 0 1 3.34-7.95 5.23 5.23 0 1 1 9 5.32l.83 3.31-4.17-.92a5.25 5.25 0 0 1-4.58 2.67zm5.25-5.25c0 .32-.03.63-.08.93l1.2.26-.33-1.3.4-.63a3.48 3.48 0 0 0-5.36-4.4 5.25 5.25 0 0 1 4.17 5.14zm-8.12 3.82l1.93-.43.34.06a3.5 3.5 0 1 0-2.34-1.56l.4.63z"/></defs><g><g transform="translate(-511 -912)"><use fill="#d8232a" xlink:href="#rprwa"/></g></g></svg>