<svg xmlns="http://www.w3.org/2000/svg" xmlns:xlink="http://www.w3.org/1999/xlink" width="16" height="16" viewBox="0 0 16 16"><defs><path id="sph5a" d="M1383 1427a8 8 0 1 1 0-16 8 8 0 0 1 0 16zm0-14a6 6 0 1 0 0 12 6 6 0 0 0 0-12zm1.46 5.98l1.21 1.2c.4.41.4 1.07 0 1.48-.4.4-1.06.4-1.47 0l-1.22-1.21-1.21 1.2c-.4.41-1.07.41-1.48 0-.4-.4-.4-1.06 0-1.46l1.22-1.21-1.21-1.21c-.41-.4-.41-1.06 0-1.47.4-.4 1.06-.4 1.47 0l1.21 1.2 1.22-1.2c.4-.4 1.06-.4 1.47 0 .4.4.4 1.06 0 1.47z"/></defs><g><g transform="translate(-1375 -1411)"><use fill="#fff" xlink:href="#sph5a"/></g></g></svg>