<svg xmlns="http://www.w3.org/2000/svg" xmlns:xlink="http://www.w3.org/1999/xlink" width="14" height="14" viewBox="0 0 14 14"><defs><path id="h42ua" d="M917.25 888h-10.5c-.97 0-1.75-.84-1.75-1.87v-2.8c0-.51.4-.93.87-.93.49 0 .88.42.88.93v1.87c0 .52.4.93.87.93h8.75c.49 0 .88-.41.88-.93v-1.87c0-.51.4-.93.88-.93s.87.42.87.93v2.8c0 1.03-.78 1.87-1.75 1.87zm-6.13-13.07c0-.51.4-.93.88-.93s.87.42.87.93v6.11l1.12-1.19a.84.84 0 0 1 1.24 0c.35.37.35.96 0 1.32l-2.48 2.64a.87.87 0 0 1-.8.46.85.85 0 0 1-.61-.27l-2.6-2.82a.98.98 0 0 1 0-1.32.84.84 0 0 1 1.24 0l1.14 1.25z"/></defs><g><g transform="translate(-905 -874)"><use fill="#fff" xlink:href="#h42ua"/></g></g></svg>