<svg xmlns="http://www.w3.org/2000/svg" xmlns:xlink="http://www.w3.org/1999/xlink" width="15" height="13" viewBox="0 0 15 13"><defs><path id="9i0sa" d="M1192.68 755.2l-6.19 5.8-6.18-5.8a4.03 4.03 0 0 1 0-5.97 4.7 4.7 0 0 1 6.18-.13 4.7 4.7 0 0 1 6.19.13 4.03 4.03 0 0 1 0 5.97zm-1.4-4.64a2.6 2.6 0 0 0-3.43-.07l-1.33 1.25-1.34-1.25a2.6 2.6 0 0 0-3.43.07 2.26 2.26 0 0 0 0 3.3l4.77 4.44 4.77-4.43a2.26 2.26 0 0 0 0-3.31z"/></defs><g><g transform="translate(-1179 -748)"><use fill="#d8232a" xlink:href="#9i0sa"/></g></g></svg>