<svg xmlns="http://www.w3.org/2000/svg" xmlns:xlink="http://www.w3.org/1999/xlink" width="13" height="16" viewBox="0 0 13 16"><defs><path id="5owia" d="M1348.87 1420.47a6.45 6.45 0 0 1-6.37 5.53 6.5 6.5 0 1 1 1.27-12.86l-1.46-1.44a1 1 0 0 1 0-1.41.99.99 0 0 1 1.4 0l3 2.96a1 1 0 0 1 0 1.42l-3 3.03a.99.99 0 0 1-1.4 0 1 1 0 0 1 0-1.41l1.14-1.17a4.5 4.5 0 1 0 3.5 4.88h.05a1 1 0 0 1 2 0c0 .18-.05.33-.13.47z"/></defs><g><g transform="translate(-1336 -1410)"><use fill="#fff" xlink:href="#5owia"/></g></g></svg>