<svg xmlns="http://www.w3.org/2000/svg" xmlns:xlink="http://www.w3.org/1999/xlink" width="15" height="15" viewBox="0 0 15 15"><defs><path id="k298a" d="M1371.94 814.93a6.58 6.58 0 0 1 9.34 0 6.68 6.68 0 0 1 .54 8.78l2.94 2.88a.8.8 0 0 1-.04 1.17.91.91 0 0 1-1.24 0l-2.89-2.83a6.58 6.58 0 0 1-8.65-.6 6.68 6.68 0 0 1 0-9.4zm1.33 8.15a4.73 4.73 0 0 0 6.51.19.88.88 0 0 1 .3-.3 4.8 4.8 0 0 0-.1-6.65 4.73 4.73 0 0 0-6.71 0 4.8 4.8 0 0 0 0 6.76z"/></defs><g><g transform="translate(-1370 -813)"><use fill="#3f444e" xlink:href="#k298a"/></g></g></svg>