<svg xmlns="http://www.w3.org/2000/svg" xmlns:xlink="http://www.w3.org/1999/xlink" width="12" height="11" viewBox="0 0 12 11"><defs><path id="6fmua" d="M632.6 975.04l.96 1.78 2.3.45c1.08.22 1.14.84 1.14.84s.14.54-.68 1.43l-1.4 1.54.3 2.5c.13 1.08-.26 1.32-.26 1.32s-.63.23-1.7-.29l-1.89-.9-2.28 1.1c-.94.44-1.48.01-1.48.01s-.23-.07-.1-1.09l.32-2.65-1.4-1.54c-.83-.9-.84-1.5-.84-1.5s.12-.54 1.16-.74l2.43-.48.93-1.71c.6-1.11 1.26-1.1 1.26-1.1s.64-.06 1.23 1.03zm-4.7 3.27c-.47.1-.47.32-.47.32s-.04.2.35.63l1.3 1.41-.2 1.68c-.1.68.04.85.04.85s.2.26.71.02l1.75-.84 1.76.85c.5.23.76.15.76.15s.1-.09.04-.56l-.26-2.15 1.4-1.53c.35-.37.3-.54.3-.54s-.02-.19-.46-.28l-2.12-.41-1-1.85c-.23-.44-.43-.48-.43-.48s-.18.04-.42.49l-1 1.84-2.05.4z"/></defs><g><g transform="translate(-625 -974)"><use fill="#3f444e" xlink:href="#6fmua"/></g></g></svg>