<svg xmlns="http://www.w3.org/2000/svg" xmlns:xlink="http://www.w3.org/1999/xlink" width="14" height="14" viewBox="0 0 14 14"><defs><path id="vq6pa" d="M773.57 748.33l1.17 2.26 2.82.57c1.34.28 1.41 1.07 1.41 1.07s.17.69-.84 1.83l-1.72 1.95.37 3.18c.16 1.38-.32 1.68-.32 1.68s-.77.3-2.09-.36l-2.31-1.15-2.8 1.39c-1.16.57-1.83.03-1.83.03s-.28-.1-.12-1.4l.4-3.37-1.73-1.95c-1-1.14-1.03-1.93-1.03-1.93s.15-.67 1.43-.93l2.99-.6 1.13-2.19c.74-1.41 1.56-1.4 1.56-1.4s.78-.07 1.5 1.32zm-5.77 4.16c-.58.11-.58.4-.58.4s-.05.26.43.8l1.59 1.8-.25 2.14c-.1.87.06 1.07.06 1.07s.25.34.87.04l2.15-1.07 2.15 1.07c.62.3.94.2.94.2s.13-.11.06-.72l-.33-2.73 1.73-1.94c.42-.48.37-.7.37-.7s-.03-.24-.57-.35l-2.6-.53-1.23-2.34c-.3-.57-.53-.62-.53-.62s-.23.05-.52.62l-1.22 2.34-2.52.52z"/></defs><g><g transform="translate(-765 -747)"><use fill="#fff" xlink:href="#vq6pa"/></g></g></svg>