<svg xmlns="http://www.w3.org/2000/svg" xmlns:xlink="http://www.w3.org/1999/xlink" width="14" height="14" viewBox="0 0 14 14"><defs><path id="bx3pa" d="M700.1 747s.79-.06 1.51 1.33l1.18 2.26 2.81.57c1.34.28 1.42 1.07 1.42 1.07s.16.69-.84 1.83l-1.73 1.95.38 3.18c.16 1.38-.32 1.68-.32 1.68s-.77.3-2.1-.36l-2.3-1.15-2.8 1.39c-1.17.57-1.83.03-1.83.03s-.28-.1-.13-1.4c.2-1.6.4-3.37.4-3.37l-1.72-1.95c-1.01-1.14-1.03-1.93-1.03-1.93s.15-.67 1.43-.93l2.98-.6 1.14-2.19c.73-1.41 1.55-1.4 1.55-1.4"/></defs><g><g transform="translate(-693 -747)"><use fill="#d8232a" xlink:href="#bx3pa"/></g></g></svg>