<svg xmlns="http://www.w3.org/2000/svg" xmlns:xlink="http://www.w3.org/1999/xlink" width="12" height="11" viewBox="0 0 12 11"><defs><path id="oayra" d="M572.78 974s.64-.05 1.23 1.04l.96 1.78 2.3.45c1.08.22 1.14.84 1.14.84s.14.54-.68 1.43l-1.4 1.54.3 2.5c.13 1.08-.26 1.32-.26 1.32s-.62.23-1.7-.29l-1.89-.9-2.28 1.1c-.94.44-1.48.01-1.48.01s-.23-.07-.1-1.09l.32-2.65-1.4-1.54c-.82-.89-.84-1.5-.84-1.5s.12-.54 1.16-.74l2.43-.48.93-1.71c.6-1.11 1.26-1.1 1.26-1.1"/></defs><g><g transform="translate(-567 -974)"><use fill="#d8232a" xlink:href="#oayra"/></g></g></svg>