<svg xmlns="http://www.w3.org/2000/svg" xmlns:xlink="http://www.w3.org/1999/xlink" width="13" height="15" viewBox="0 0 13 15"><defs><path id="ytzxa" d="M1309.07 1415.62h-.93v7.5c0 1.04-.83 1.88-1.85 1.88h-5.58a1.87 1.87 0 0 1-1.85-1.88v-7.5h-.93a.93.93 0 0 1-.93-.93c0-.52.42-.94.93-.94h2.78v-2.81c0-.52.42-.94.93-.94h3.72c.51 0 .93.42.93.94v2.81h2.78c.51 0 .93.42.93.94s-.42.93-.93.93zm-7.43 0a.93.93 0 0 0-.93.94v5.63c0 .52.42.93.93.93.52 0 .93-.41.93-.93v-5.63a.93.93 0 0 0-.93-.94zm2.79-2.8a.93.93 0 0 0-.93-.95.93.93 0 0 0-.93.94v.94h1.86zm1.86 3.74a.93.93 0 0 0-.93-.94.93.93 0 0 0-.93.94v5.63c0 .52.41.93.93.93.51 0 .93-.41.93-.93z"/></defs><g><g transform="translate(-1297 -1410)"><use fill="#fff" xlink:href="#ytzxa"/></g></g></svg>